<?xml version="1.0" encoding="UTF-8" standalone="no"?>
<!-- Created with Inkscape (http://www.inkscape.org/) -->

<svg
   width="108"
   height="108"
   viewBox="0 0 28.574999 28.575001"
   version="1.1"
   id="svg5"
   inkscape:version="1.2 (dc2aedaf03, 2022-05-15)"
   sodipodi:docname="adaptive-icon.svg"
   inkscape:export-filename="..\android\app\src\main\res\mipmap-mdpi\ic_launcher_adaptive_fore.png"
   inkscape:export-xdpi="96"
   inkscape:export-ydpi="96"
   xmlns:inkscape="http://www.inkscape.org/namespaces/inkscape"
   xmlns:sodipodi="http://sodipodi.sourceforge.net/DTD/sodipodi-0.dtd"
   xmlns:xlink="http://www.w3.org/1999/xlink"
   xmlns="http://www.w3.org/2000/svg"
   xmlns:svg="http://www.w3.org/2000/svg">
  <sodipodi:namedview
     id="namedview7"
     pagecolor="#ffffff"
     bordercolor="#666666"
     borderopacity="1.0"
     inkscape:pageshadow="2"
     inkscape:pageopacity="0.0"
     inkscape:pagecheckerboard="0"
     inkscape:document-units="mm"
     showgrid="false"
     units="px"
     inkscape:zoom="4.2783903"
     inkscape:cx="-13.673367"
     inkscape:cy="46.746553"
     inkscape:window-width="2560"
     inkscape:window-height="1369"
     inkscape:window-x="-8"
     inkscape:window-y="-8"
     inkscape:window-maximized="1"
     inkscape:current-layer="layer3"
     showguides="true"
     inkscape:showpageshadow="2"
     inkscape:deskcolor="#d1d1d1">
    <inkscape:grid
       type="xygrid"
       id="grid8095"
       originx="0"
       originy="0" />
  </sodipodi:namedview>
  <defs
     id="defs2">
    <linearGradient
       id="linearGradient4790">
      <stop
         style="stop-color:#295593;stop-opacity:1;"
         offset="0"
         id="stop4786" />
      <stop
         style="stop-color:#5d59d9;stop-opacity:1;"
         offset="1"
         id="stop4788" />
    </linearGradient>
    <linearGradient
       id="foreground">
      <stop
         style="stop-color:#fc5593;stop-opacity:1;"
         offset="0"
         id="stop9996" />
      <stop
         style="stop-color:#5d59d9;stop-opacity:1;"
         offset="1"
         id="stop9998" />
    </linearGradient>
    <linearGradient
       id="glow">
      <stop
         style="stop-color:#fb2373;stop-opacity:1;"
         offset="0"
         id="stop5870" />
      <stop
         style="stop-color:#342fd0;stop-opacity:1;"
         offset="1"
         id="stop5872" />
    </linearGradient>
    <filter
       style="color-interpolation-filters:sRGB"
       inkscape:label="Drop Shadow"
       id="filter2586"
       x="-0.19368468"
       y="-0.16960341"
       width="1.3995615"
       height="1.4032662">
      <feFlood
         flood-opacity="0.2"
         flood-color="rgb(0,0,0)"
         result="flood"
         id="feFlood2576" />
      <feComposite
         in="flood"
         in2="SourceGraphic"
         operator="in"
         result="composite1"
         id="feComposite2578" />
      <feGaussianBlur
         in="composite1"
         stdDeviation="5"
         result="blur"
         id="feGaussianBlur2580" />
      <feOffset
         dx="1"
         dy="6"
         result="offset"
         id="feOffset2582" />
      <feComposite
         in="SourceGraphic"
         in2="offset"
         operator="over"
         result="composite2"
         id="feComposite2584" />
    </filter>
    <filter
       style="color-interpolation-filters:sRGB"
       inkscape:label="Drop Shadow"
       id="filter5146"
       x="-0.41339773"
       y="-0.48360354"
       width="1.8553189"
       height="2.1653292">
      <feFlood
         flood-opacity="0.2"
         flood-color="rgb(0,0,0)"
         result="flood"
         id="feFlood5136" />
      <feComposite
         in="flood"
         in2="SourceGraphic"
         operator="in"
         result="composite1"
         id="feComposite5138" />
      <feGaussianBlur
         in="composite1"
         stdDeviation="5"
         result="blur"
         id="feGaussianBlur5140" />
      <feOffset
         dx="1"
         dy="6"
         result="offset"
         id="feOffset5142" />
      <feComposite
         in="SourceGraphic"
         in2="offset"
         operator="over"
         result="composite2"
         id="feComposite5144" />
    </filter>
    <filter
       style="color-interpolation-filters:sRGB"
       inkscape:label="Drop Shadow"
       id="filter5146-9"
       x="-0.22152501"
       y="-0.22209939"
       width="1.4579918"
       height="1.5340818">
      <feFlood
         flood-opacity="0.2"
         flood-color="rgb(0,0,0)"
         result="flood"
         id="feFlood5136-0" />
      <feComposite
         in="flood"
         in2="SourceGraphic"
         operator="in"
         result="composite1"
         id="feComposite5138-5" />
      <feGaussianBlur
         in="composite1"
         stdDeviation="5"
         result="blur"
         id="feGaussianBlur5140-5" />
      <feOffset
         dx="1"
         dy="6"
         result="offset"
         id="feOffset5142-6" />
      <feComposite
         in="SourceGraphic"
         in2="offset"
         operator="over"
         result="composite2"
         id="feComposite5144-3" />
    </filter>
    <filter
       style="color-interpolation-filters:sRGB"
       inkscape:label="Drop Shadow"
       id="filter6351"
       x="-0.41339773"
       y="-0.48360348"
       width="1.8553189"
       height="2.1653292">
      <feFlood
         flood-opacity="0.2"
         flood-color="rgb(0,0,0)"
         result="flood"
         id="feFlood6341" />
      <feComposite
         in="flood"
         in2="SourceGraphic"
         operator="in"
         result="composite1"
         id="feComposite6343" />
      <feGaussianBlur
         in="composite1"
         stdDeviation="5"
         result="blur"
         id="feGaussianBlur6345" />
      <feOffset
         dx="1"
         dy="6"
         result="offset"
         id="feOffset6347" />
      <feComposite
         in="SourceGraphic"
         in2="offset"
         operator="over"
         result="composite2"
         id="feComposite6349" />
    </filter>
    <filter
       style="color-interpolation-filters:sRGB"
       inkscape:label="Drop Shadow"
       id="filter7630"
       x="-0.1581562"
       y="-0.15843345"
       width="1.3271111"
       height="1.3817728">
      <feFlood
         flood-opacity="0.2"
         flood-color="rgb(0,0,0)"
         result="flood"
         id="feFlood7620" />
      <feComposite
         in="flood"
         in2="SourceGraphic"
         operator="in"
         result="composite1"
         id="feComposite7622" />
      <feGaussianBlur
         in="composite1"
         stdDeviation="5"
         result="blur"
         id="feGaussianBlur7624" />
      <feOffset
         dx="1"
         dy="6"
         result="offset"
         id="feOffset7626" />
      <feComposite
         in="SourceGraphic"
         in2="offset"
         operator="over"
         result="composite2"
         id="feComposite7628" />
    </filter>
    <filter
       style="color-interpolation-filters:sRGB"
       inkscape:label="Drop Shadow"
       id="filter7695"
       x="-0.20037881"
       y="-0.20037881"
       width="1.4123458"
       height="1.4702867">
      <feFlood
         flood-opacity="0.2"
         flood-color="rgb(0,0,0)"
         result="flood"
         id="feFlood7685" />
      <feComposite
         in="flood"
         in2="SourceGraphic"
         operator="in"
         result="composite1"
         id="feComposite7687" />
      <feGaussianBlur
         in="composite1"
         stdDeviation="5"
         result="blur"
         id="feGaussianBlur7689" />
      <feOffset
         dx="1"
         dy="6"
         result="offset"
         id="feOffset7691" />
      <feComposite
         in="SourceGraphic"
         in2="offset"
         operator="over"
         result="composite2"
         id="feComposite7693" />
    </filter>
    <filter
       style="color-interpolation-filters:sRGB"
       inkscape:label="Drop Shadow"
       id="filter1921"
       x="-0.07719887"
       y="-0.07719887"
       width="1.1704808"
       height="1.1543977">
      <feFlood
         flood-opacity="0.2"
         flood-color="rgb(0,0,0)"
         result="flood"
         id="feFlood1911" />
      <feComposite
         in="flood"
         in2="SourceGraphic"
         operator="in"
         result="composite1"
         id="feComposite1913" />
      <feGaussianBlur
         in="composite1"
         stdDeviation="2"
         result="blur"
         id="feGaussianBlur1915" />
      <feOffset
         dx="1"
         dy="0"
         result="offset"
         id="feOffset1917" />
      <feComposite
         in="SourceGraphic"
         in2="offset"
         operator="over"
         result="fbSourceGraphic"
         id="feComposite1919" />
      <feColorMatrix
         result="fbSourceGraphicAlpha"
         in="fbSourceGraphic"
         values="0 0 0 -1 0 0 0 0 -1 0 0 0 0 -1 0 0 0 0 1 0"
         id="feColorMatrix1941" />
      <feFlood
         id="feFlood1943"
         flood-opacity="0.2"
         flood-color="rgb(0,0,0)"
         result="flood"
         in="fbSourceGraphic" />
      <feComposite
         in2="fbSourceGraphic"
         id="feComposite1945"
         in="flood"
         operator="in"
         result="composite1" />
      <feGaussianBlur
         id="feGaussianBlur1947"
         in="composite1"
         stdDeviation="2"
         result="blur" />
      <feOffset
         id="feOffset1949"
         dx="1"
         dy="0"
         result="offset" />
      <feComposite
         in2="offset"
         id="feComposite1951"
         in="fbSourceGraphic"
         operator="over"
         result="composite2" />
    </filter>
    <filter
       style="color-interpolation-filters:sRGB"
       inkscape:label="Drop Shadow"
       id="filter1656"
       x="-0.1361976"
       y="-0.27239519"
       width="1.2723953"
       height="1.637332">
      <feFlood
         flood-opacity="0.2"
         flood-color="rgb(0,0,0)"
         result="flood"
         id="feFlood1646" />
      <feComposite
         in="flood"
         in2="SourceGraphic"
         operator="in"
         result="composite1"
         id="feComposite1648" />
      <feGaussianBlur
         in="composite1"
         stdDeviation="0.0032360581"
         result="blur"
         id="feGaussianBlur1650" />
      <feOffset
         dx="0"
         dy="4"
         result="offset"
         id="feOffset1652" />
      <feComposite
         in="SourceGraphic"
         in2="offset"
         operator="over"
         result="composite2"
         id="feComposite1654" />
    </filter>
    <filter
       style="color-interpolation-filters:sRGB"
       inkscape:label="Drop Shadow"
       id="filter1133"
       x="-0.00012"
       y="-0.00012"
       width="1.00024"
       height="1.015125">
      <feFlood
         flood-opacity="0.2"
         flood-color="rgb(0,0,0)"
         result="flood"
         id="feFlood1123" />
      <feComposite
         in="flood"
         in2="SourceGraphic"
         operator="in"
         result="composite1"
         id="feComposite1125" />
      <feGaussianBlur
         in="composite1"
         stdDeviation="0.013436312"
         result="blur"
         id="feGaussianBlur1127" />
      <feOffset
         dx="0"
         dy="4"
         result="offset"
         id="feOffset1129" />
      <feComposite
         in="SourceGraphic"
         in2="offset"
         operator="over"
         result="composite2"
         id="feComposite1131" />
    </filter>
    <filter
       style="color-interpolation-filters:sRGB"
       inkscape:label="Drop Shadow"
       id="filter1133-8"
       x="-0.00012"
       y="-0.00012"
       width="1.00024"
       height="1.015125">
      <feFlood
         flood-opacity="0.2"
         flood-color="rgb(0,0,0)"
         result="flood"
         id="feFlood1123-9" />
      <feComposite
         in="flood"
         in2="SourceGraphic"
         operator="in"
         result="composite1"
         id="feComposite1125-1" />
      <feGaussianBlur
         in="composite1"
         stdDeviation="0.013436312"
         result="blur"
         id="feGaussianBlur1127-3" />
      <feOffset
         dx="0"
         dy="4"
         result="offset"
         id="feOffset1129-0" />
      <feComposite
         in="SourceGraphic"
         in2="offset"
         operator="over"
         result="composite2"
         id="feComposite1131-5" />
    </filter>
    <filter
       style="color-interpolation-filters:sRGB"
       inkscape:label="Drop Shadow"
       id="filter3505"
       x="-0.06144055"
       y="-0.06144055"
       width="1.1228811"
       height="1.1692338">
      <feFlood
         flood-opacity="0.2"
         flood-color="rgb(0,0,0)"
         result="flood"
         id="feFlood3495" />
      <feComposite
         in="flood"
         in2="SourceGraphic"
         operator="in"
         result="composite1"
         id="feComposite3497" />
      <feGaussianBlur
         in="composite1"
         stdDeviation="0.0043147442"
         result="blur"
         id="feGaussianBlur3499" />
      <feOffset
         dx="0"
         dy="4"
         result="offset"
         id="feOffset3501" />
      <feComposite
         in="SourceGraphic"
         in2="offset"
         operator="over"
         result="composite2"
         id="feComposite3503" />
    </filter>
    <filter
       style="color-interpolation-filters:sRGB"
       inkscape:label="Drop Shadow"
       id="filter3517"
       x="-0.13608119"
       y="-0.27216238"
       width="1.2721624"
       height="1.6368665">
      <feFlood
         flood-opacity="0.2"
         flood-color="rgb(0,0,0)"
         result="flood"
         id="feFlood3507" />
      <feComposite
         in="flood"
         in2="SourceGraphic"
         operator="in"
         result="composite1"
         id="feComposite3509" />
      <feGaussianBlur
         in="composite1"
         stdDeviation="0.00012944233"
         result="blur"
         id="feGaussianBlur3511" />
      <feOffset
         dx="0"
         dy="4"
         result="offset"
         id="feOffset3513" />
      <feComposite
         in="SourceGraphic"
         in2="offset"
         operator="over"
         result="composite2"
         id="feComposite3515" />
    </filter>
    <linearGradient
       inkscape:collect="always"
       xlink:href="#glow"
       id="linearGradient5876"
       x1="22.078009"
       y1="113.43699"
       x2="113.57451"
       y2="22.029701"
       gradientUnits="userSpaceOnUse"
       gradientTransform="rotate(90,67.733367,67.733346)" />
    <filter
       inkscape:collect="always"
       style="color-interpolation-filters:sRGB"
       id="filter7444"
       x="-0.10799998"
       y="-0.10800002"
       width="1.216"
       height="1.216">
      <feGaussianBlur
         inkscape:collect="always"
         stdDeviation="4.1925874"
         id="feGaussianBlur7446" />
    </filter>
    <filter
       inkscape:collect="always"
       style="color-interpolation-filters:sRGB"
       id="filter7453"
       x="-0.29999994"
       y="-0.30000007"
       width="1.5999999"
       height="1.6000001">
      <feGaussianBlur
         inkscape:collect="always"
         stdDeviation="11.646076"
         id="feGaussianBlur7451" />
    </filter>
    <linearGradient
       inkscape:collect="always"
       xlink:href="#foreground"
       id="linearGradient9980"
       gradientUnits="userSpaceOnUse"
       gradientTransform="rotate(90,67.733367,67.733346)"
       x1="22.078009"
       y1="113.43699"
       x2="113.57451"
       y2="22.029701" />
    <linearGradient
       inkscape:collect="always"
       xlink:href="#glow"
       id="linearGradient9988"
       gradientUnits="userSpaceOnUse"
       gradientTransform="rotate(90,67.733367,67.733346)"
       x1="22.078009"
       y1="113.43699"
       x2="113.57451"
       y2="22.029701" />
    <filter
       style="color-interpolation-filters:sRGB"
       inkscape:label="Drop Shadow"
       id="filter5146-7"
       x="-0.037535068"
       y="-0.043809898"
       width="1.1034346"
       height="1.2857426">
      <feFlood
         flood-opacity="0.2"
         flood-color="rgb(0,0,0)"
         result="flood"
         id="feFlood5136-6" />
      <feComposite
         in="flood"
         in2="SourceGraphic"
         operator="in"
         result="composite1"
         id="feComposite5138-0" />
      <feGaussianBlur
         in="composite1"
         stdDeviation="0.0016432483"
         result="blur"
         id="feGaussianBlur5140-2" />
      <feOffset
         dx="1"
         dy="6"
         result="offset"
         id="feOffset5142-7" />
      <feComposite
         in="SourceGraphic"
         in2="offset"
         operator="over"
         result="composite2"
         id="feComposite5144-7" />
    </filter>
    <linearGradient
       inkscape:collect="always"
       xlink:href="#foreground"
       id="linearGradient19174"
       x1="18.707603"
       y1="67.944641"
       x2="116.7592"
       y2="67.944641"
       gradientUnits="userSpaceOnUse"
       gradientTransform="matrix(0.13544781,0,0,0.13444539,5.1131728,0.40447235)" />
    <filter
       inkscape:collect="always"
       style="color-interpolation-filters:sRGB"
       id="filter7593"
       x="-0.31326953"
       y="-0.36129898"
       width="1.6265391"
       height="1.7340029">
      <feGaussianBlur
         inkscape:collect="always"
         stdDeviation="1.5054868"
         id="feGaussianBlur7595" />
    </filter>
    <filter
       inkscape:collect="always"
       style="color-interpolation-filters:sRGB"
       id="filter9056"
       x="-0.13403132"
       y="-0.15458056"
       width="1.2680626"
       height="1.3205661">
      <feGaussianBlur
         inkscape:collect="always"
         stdDeviation="0.54197525"
         id="feGaussianBlur9054" />
    </filter>
  </defs>
  <g
     inkscape:groupmode="layer"
     id="layer4"
     inkscape:label="Background"
     style="display:none">
    <rect
       style="display:inline;fill:#131313;fill-opacity:1;fill-rule:evenodd;stroke:none;stroke-width:0.0905694"
       id="rect14245"
       width="28.575001"
       height="28.575001"
       x="0"
       y="-28.575001"
       ry="14.2875"
       transform="rotate(90)"
       inkscape:label="Circle" />
    <rect
       style="display:inline;fill:#ededed;fill-opacity:1;fill-rule:evenodd;stroke:none;stroke-width:0.0905694"
       id="rect31-4-3"
       width="28.575001"
       height="28.575001"
       x="0"
       y="-28.575001"
       ry="0"
       transform="rotate(90)"
       inkscape:label="Square" />
    <rect
       style="display:none;opacity:1;fill:#121212;fill-opacity:1;stroke:none;stroke-width:1.98924;stroke-linecap:round;stroke-linejoin:round;paint-order:markers fill stroke"
       id="rect1322"
       width="19.049999"
       height="19.049999"
       x="4.7624998"
       y="4.7624998"
       inkscape:label="Icon" />
  </g>
  <g
     inkscape:groupmode="layer"
     id="layer2"
     inkscape:label="Condom"
     style="display:none">
    <path
       style="color:#000000;opacity:1;fill:url(#linearGradient5876);fill-opacity:1;stroke:none;stroke-width:8.32436;stroke-linecap:butt;stroke-linejoin:round;stroke-miterlimit:4;stroke-dasharray:none;stroke-opacity:1;-inkscape-stroke:none;paint-order:markers fill stroke;filter:url(#filter7453)"
       d="m 67.733021,114.31764 c 25.678565,0 46.584659,-20.906088 46.584659,-46.584641 0,-25.678556 -20.906091,-46.583947 -46.584659,-46.583947 -25.678568,-1e-6 -46.583969,20.905391 -46.583969,46.583947 0,25.678556 20.905402,46.584641 46.583969,46.584641 z m 0,-8.32393 c -21.179751,0 -38.260039,-17.08097 -38.260039,-38.260711 0,-21.179742 17.080288,-38.26002 38.260039,-38.26002 21.179751,0 38.260729,17.080278 38.260729,38.26002 0,21.179741 -17.080978,38.260711 -38.260729,38.260711 z M 83.02679,71.895654 a 4.1621825,4.1621806 0 0 0 4.161966,-4.162655 c 0,-6.944133 -3.714071,-13.376548 -9.727868,-16.848615 -6.013798,-3.472067 -13.441243,-3.472066 -19.455042,0 -6.013799,3.472067 -9.727867,9.904481 -9.727867,16.848615 a 4.1621825,4.1621806 0 0 0 4.161965,4.162655 4.1621825,4.1621806 0 0 0 4.161965,-4.162655 c 0,-3.983474 2.116111,-7.648208 5.565902,-9.639944 3.449791,-1.991737 7.681321,-1.991737 11.131112,0 3.44979,1.991737 5.565901,5.65647 5.565901,9.639944 a 4.1621825,4.1621806 0 0 0 4.161966,4.162655 z"
       id="path7448"
       inkscape:label="Glow big" />
    <path
       style="color:#000000;opacity:1;fill:url(#linearGradient9988);fill-opacity:1;stroke:none;stroke-width:8.32436;stroke-linecap:butt;stroke-linejoin:round;stroke-miterlimit:4;stroke-dasharray:none;stroke-opacity:1;-inkscape-stroke:none;paint-order:markers fill stroke;filter:url(#filter7444)"
       d="m 67.733021,114.31764 c 25.678565,0 46.584659,-20.906088 46.584659,-46.584641 0,-25.678556 -20.906091,-46.583947 -46.584659,-46.583947 -25.678568,-1e-6 -46.583969,20.905391 -46.583969,46.583947 0,25.678556 20.905402,46.584641 46.583969,46.584641 z m 0,-8.32393 c -21.179751,0 -38.260039,-17.08097 -38.260039,-38.260711 0,-21.179742 17.080288,-38.26002 38.260039,-38.26002 21.179751,0 38.260729,17.080278 38.260729,38.26002 0,21.179741 -17.080978,38.260711 -38.260729,38.260711 z M 83.02679,71.895654 a 4.1621825,4.1621806 0 0 0 4.161966,-4.162655 c 0,-6.944133 -3.714071,-13.376548 -9.727868,-16.848615 -6.013798,-3.472067 -13.441243,-3.472066 -19.455042,0 -6.013799,3.472067 -9.727867,9.904481 -9.727867,16.848615 a 4.1621825,4.1621806 0 0 0 4.161965,4.162655 4.1621825,4.1621806 0 0 0 4.161965,-4.162655 c 0,-3.983474 2.116111,-7.648208 5.565902,-9.639944 3.449791,-1.991737 7.681321,-1.991737 11.131112,0 3.44979,1.991737 5.565901,5.65647 5.565901,9.639944 a 4.1621825,4.1621806 0 0 0 4.161966,4.162655 z"
       id="path2763-8-68"
       inkscape:label="Glow" />
    <path
       style="color:#000000;fill:url(#linearGradient9980);fill-opacity:1;stroke:none;stroke-width:8.32436;stroke-linecap:butt;stroke-linejoin:round;stroke-miterlimit:4;stroke-dasharray:none;stroke-opacity:1;-inkscape-stroke:none;paint-order:markers fill stroke"
       d="m 67.733021,114.31764 c 25.678565,0 46.584659,-20.906088 46.584659,-46.584641 0,-25.678556 -20.906091,-46.583947 -46.584659,-46.583947 -25.678568,-1e-6 -46.583969,20.905391 -46.583969,46.583947 0,25.678556 20.905402,46.584641 46.583969,46.584641 z m 0,-8.32393 c -21.179751,0 -38.260039,-17.08097 -38.260039,-38.260711 0,-21.179742 17.080288,-38.26002 38.260039,-38.26002 21.179751,0 38.260729,17.080278 38.260729,38.26002 0,21.179741 -17.080978,38.260711 -38.260729,38.260711 z M 83.02679,71.895654 a 4.1621825,4.1621806 0 0 0 4.161966,-4.162655 c 0,-6.944133 -3.714071,-13.376548 -9.727868,-16.848615 -6.013798,-3.472067 -13.441243,-3.472066 -19.455042,0 -6.013799,3.472067 -9.727867,9.904481 -9.727867,16.848615 a 4.1621825,4.1621806 0 0 0 4.161965,4.162655 4.1621825,4.1621806 0 0 0 4.161965,-4.162655 c 0,-3.983474 2.116111,-7.648208 5.565902,-9.639944 3.449791,-1.991737 7.681321,-1.991737 11.131112,0 3.44979,1.991737 5.565901,5.65647 5.565901,9.639944 a 4.1621825,4.1621806 0 0 0 4.161966,4.162655 z"
       id="path7442"
       inkscape:label="Foreground" />
  </g>
  <g
     inkscape:groupmode="layer"
     id="layer3"
     inkscape:label="Heart"
     transform="matrix(1.0000002,0,0,0.99999887,-1.6830635e-5,5.2419835)"
     style="display:inline">
    <path
       d="M 14.287512,15.10409 14.059839,14.915767 C 9.1648897,10.960992 7.8368027,9.5674041 7.8368027,7.307532 c 0,-1.8832256 1.5178147,-3.3898075 3.4150813,-3.3898075 1.555759,0 2.428504,0.8662844 3.035628,1.5442459 0.607132,-0.6779615 1.479874,-1.5442459 3.03563,-1.5442459 1.897272,0 3.415083,1.5065819 3.415083,3.3898075 0,2.2598721 -1.328086,3.65346 -6.22304,7.608235 z M 11.251884,4.6710151 c -1.4798693,0 -2.6561752,1.1676002 -2.6561752,2.6365169 0,1.9208915 1.2142523,3.201485 5.6918032,6.817282 4.477556,-3.615797 5.691799,-4.8963905 5.691799,-6.817282 0,-1.4689167 -1.176307,-2.6365169 -2.656169,-2.6365169 -1.328084,0 -2.049048,0.7909553 -2.618229,1.4312527 L 14.287512,6.5919065 13.870114,6.1022678 C 13.300934,5.4619704 12.579971,4.6710151 11.251884,4.6710151 Z"
       id="path9051"
       style="display:inline;fill:none;fill-opacity:1;stroke:url(#linearGradient19174);stroke-width:0.856908;stroke-dasharray:none;stroke-opacity:1;filter:url(#filter9056)"
       inkscape:label="Glow big" />
    <path
       d="M 14.287512,15.10409 14.059839,14.915767 C 9.1648897,10.960992 7.8368027,9.5674041 7.8368027,7.307532 c 0,-1.8832256 1.5178147,-3.3898075 3.4150813,-3.3898075 1.555759,0 2.428504,0.8662844 3.035628,1.5442459 0.607132,-0.6779615 1.479874,-1.5442459 3.03563,-1.5442459 1.897272,0 3.415083,1.5065819 3.415083,3.3898075 0,2.2598721 -1.328086,3.65346 -6.22304,7.608235 z M 11.251884,4.6710151 c -1.4798693,0 -2.6561752,1.1676002 -2.6561752,2.6365169 0,1.9208915 1.2142523,3.201485 5.6918032,6.817282 4.477556,-3.615797 5.691799,-4.8963905 5.691799,-6.817282 0,-1.4689167 -1.176307,-2.6365169 -2.656169,-2.6365169 -1.328084,0 -2.049048,0.7909553 -2.618229,1.4312527 L 14.287512,6.5919065 13.870114,6.1022678 C 13.300934,5.4619704 12.579971,4.6710151 11.251884,4.6710151 Z"
       id="path14095"
       style="display:inline;fill:none;fill-opacity:1;stroke:url(#linearGradient19174);stroke-width:0.856908;stroke-dasharray:none;stroke-opacity:1;filter:url(#filter7593)"
       inkscape:label="Glow" />
    <path
       d="M 14.287512,15.10409 14.059839,14.915767 C 9.1648897,10.960992 7.8368027,9.5674041 7.8368027,7.307532 c 0,-1.8832256 1.5178147,-3.3898075 3.4150813,-3.3898075 1.555759,0 2.428504,0.8662844 3.035628,1.5442459 0.607132,-0.6779615 1.479874,-1.5442459 3.03563,-1.5442459 1.897272,0 3.415083,1.5065819 3.415083,3.3898075 0,2.2598721 -1.328086,3.65346 -6.22304,7.608235 z M 11.251884,4.6710151 c -1.4798693,0 -2.6561752,1.1676002 -2.6561752,2.6365169 0,1.9208915 1.2142523,3.201485 5.6918032,6.817282 4.477556,-3.615797 5.691799,-4.8963905 5.691799,-6.817282 0,-1.4689167 -1.176307,-2.6365169 -2.656169,-2.6365169 -1.328084,0 -2.049048,0.7909553 -2.618229,1.4312527 L 14.287512,6.5919065 13.870114,6.1022678 C 13.300934,5.4619704 12.579971,4.6710151 11.251884,4.6710151 Z"
       id="path5109"
       style="display:inline;fill:none;fill-opacity:1;stroke:url(#linearGradient19174);stroke-width:0.856908;stroke-dasharray:none;stroke-opacity:1"
       inkscape:label="Foreground" />
    <path
       d="M 14.287512,15.10409 14.059839,14.915767 C 9.1648897,10.960992 7.8368027,9.5674041 7.8368027,7.307532 c 0,-1.8832256 1.5178147,-3.3898075 3.4150813,-3.3898075 1.555759,0 2.428504,0.8662844 3.035628,1.5442459 0.607132,-0.6779615 1.479874,-1.5442459 3.03563,-1.5442459 1.897272,0 3.415083,1.5065819 3.415083,3.3898075 0,2.2598721 -1.328086,3.65346 -6.22304,7.608235 z M 11.251884,4.6710151 c -1.4798693,0 -2.6561752,1.1676002 -2.6561752,2.6365169 0,1.9208915 1.2142523,3.201485 5.6918032,6.817282 4.477556,-3.615797 5.691799,-4.8963905 5.691799,-6.817282 0,-1.4689167 -1.176307,-2.6365169 -2.656169,-2.6365169 -1.328084,0 -2.049048,0.7909553 -2.618229,1.4312527 L 14.287512,6.5919065 13.870114,6.1022678 C 13.300934,5.4619704 12.579971,4.6710151 11.251884,4.6710151 Z"
       id="path9554"
       style="display:none;fill:none;fill-opacity:1;stroke:#000000;stroke-width:0.856908;stroke-dasharray:none;stroke-opacity:1"
       inkscape:label="Mono" />
  </g>
  <g
     inkscape:groupmode="layer"
     id="layer1"
     inkscape:label="Mask">
    <path
       id="rect1322-0"
       style="display:none;fill:#ffffff;fill-opacity:1;stroke:none;stroke-width:1.82347;stroke-linecap:round;stroke-linejoin:round;paint-order:markers fill stroke"
       inkscape:label="Circle"
       d="M 0,0 V 28.575 H 28.575 V 0 Z m 14.2875,5.55625 c 4.837108,0 8.73125,3.8941424 8.73125,8.73125 0,4.837108 -3.894142,8.73125 -8.73125,8.73125 -4.8371076,0 -8.73125,-3.894142 -8.73125,-8.73125 0,-4.8371076 3.8941424,-8.73125 8.73125,-8.73125 z" />
    <path
       style="display:none;fill:#ffffff;fill-opacity:1;stroke:none;stroke-width:0.0558106;stroke-linecap:butt;stroke-linejoin:round;stroke-miterlimit:4;stroke-dasharray:none;stroke-dashoffset:0;stroke-opacity:1;paint-order:stroke fill markers"
       d="M 0,0 V 28.575 H 28.575002 V 0 Z M 14.287502,4.68809 V 14.2875 H 4.68809 c 0,-7.6806502 1.96465,-9.59941 9.599412,-9.59941 z m 2.21e-4,0 c 7.680648,0 9.599414,1.9646498 9.599414,9.59941 H 14.287725 Z M 4.68809,14.28772 h 9.59941 v 9.59941 c -7.68065,0 -9.59941,-1.96465 -9.59941,-9.59941 z m 9.599628,0 h 9.599414 c 0,7.68065 -1.964655,9.59941 -9.599414,9.59941 z"
       id="rect868"
       inkscape:label="Squircle" />
  </g>
</svg>
